<?xml version="1.0" encoding="UTF-8"?><svg id="Layer_1" xmlns="http://www.w3.org/2000/svg" viewBox="0 0 85.7 84.58"><path d="M67.09,77.23c-4.66,3.56-9.81,6.01-15.43,7.35-2.01-6.13-4.94-11.73-8.79-16.82-3.31,5.04-5.8,10.51-7.49,16.4-6.39-.22-11.86-2.71-16.4-7.49,16.38-21.98,32.41-21.8,48.1.55Z" fill="#121212" fill-rule="evenodd" stroke-width="0"/><path d="M83.19,30.27c2,5.51,2.81,11.15,2.41,16.92-6.45.09-12.67,1.22-18.67,3.37,3.83,4.66,8.3,8.67,13.42,12.04-2.11,6.03-6.12,10.51-12.04,13.42-16.1-22.19-11.14-37.44,14.87-45.75Z" fill="#121212" fill-rule="evenodd" stroke-width="0"/><path d="M43.95.37c5.86-.14,11.46.9,16.8,3.12-1.97,6.14-2.89,12.4-2.77,18.77,5.64-2.14,10.87-5.09,15.69-8.87,5.04,3.93,8,9.16,8.87,15.69-26.17,8.17-39.04-1.4-38.6-28.71Z" fill="#121212" fill-rule="evenodd" stroke-width="0"/><path d="M3.51,29.14c1.54-5.66,4.13-10.73,7.78-15.21,5.32,3.64,11.06,6.31,17.2,8.01-.44-6.01-1.78-11.87-4.03-17.57C29.66.65,35.52-.69,42.03.33c.36,27.41-12.48,37.01-38.52,28.81Z" fill="#121212" fill-rule="evenodd" stroke-width="0"/><path d="M17.81,76.11c-4.87-3.27-8.84-7.35-11.92-12.24,5.15-3.88,9.52-8.45,13.1-13.73-5.84-1.51-11.81-2.11-17.94-1.81-1.85-6.12-1.25-12.1,1.81-17.94,26.08,8.44,31.07,23.68,14.95,45.72Z" fill="#121212" fill-rule="evenodd" stroke-width="0"/></svg>